<svg xmlns="http://www.w3.org/2000/svg" xmlns:xlink="http://www.w3.org/1999/xlink" width="1366" zoomAndPan="magnify" viewBox="0 0 1024.5 520.499984" height="694" preserveAspectRatio="xMidYMid meet" version="1.0"><defs><clipPath id="6f360951a1"><path d="M 0.242188 0 L 1023.757812 0 L 1023.757812 336.265625 L 0.242188 336.265625 Z M 0.242188 0 " clip-rule="nonzero"/></clipPath><clipPath id="22fcb54f1f"><path d="M 0.242188 313.863281 L 1023.757812 313.863281 L 1023.757812 487.976562 L 0.242188 487.976562 Z M 0.242188 313.863281 " clip-rule="nonzero"/></clipPath><clipPath id="13cf06062e"><path d="M 1042.367188 455.738281 C 1025.703125 454.808594 1017.933594 458.058594 989.851562 458.285156 C 976.386719 453.816406 982.128906 457.828125 950.972656 456.496094 C 948.921875 457.757812 948.390625 456.25 948.367188 455.894531 C 947.152344 455.402344 942.992188 457.308594 947.28125 456.398438 C 953.851562 459.726562 916.808594 453.734375 903.214844 455.121094 C 877.328125 455.703125 848.734375 456.460938 828.441406 461.40625 C 822.59375 460.511719 828.503906 461.34375 811.199219 463.222656 C 806.71875 464.902344 798.757812 461.742188 791.589844 465.511719 C 794.449219 469.601562 775.433594 467.492188 760.328125 475.476562 C 755.269531 473.925781 742.847656 479.828125 690.996094 479.335938 C 685.875 483.203125 690.226562 477.035156 685.554688 478.011719 C 672.449219 478.558594 665.152344 482.054688 658.046875 480.375 C 645.648438 481.363281 625.71875 476.160156 611.847656 476.234375 C 591.167969 473.058594 579.070312 479.683594 553.058594 482.226562 C 495.121094 477.976562 486.882812 484.726562 418.578125 487.976562 C 396.960938 487.585938 380.144531 480.714844 354.003906 480.066406 C 350.632812 478.132812 337.488281 481.644531 333.046875 479.480469 C 329.804688 476.371094 325.601562 478.84375 324.621094 478.570312 C 319.261719 476.433594 316.445312 477.609375 307.292969 476.296875 C 290.648438 474.671875 279.808594 474.828125 269.285156 469.234375 C 264.316406 470.246094 240.992188 468.597656 232.347656 465.21875 C 230.789062 463.722656 223.554688 468.503906 225.050781 464.371094 C 219.929688 464.4375 217.644531 465.21875 216.214844 463.128906 C 212.375 462.308594 207.382812 461.6875 203.539062 463.351562 C 199.613281 463.613281 204.203125 460.265625 196.242188 462.429688 C 187.152344 455.257812 170.144531 460.785156 156.015625 456.542969 C 131.734375 456.660156 95.710938 458.558594 68.035156 460 C 50.453125 455.027344 19.660156 452.355469 -3.515625 454.117188 C -24.945312 447.664062 -17.558594 477.144531 -20.714844 320.570312 C -10.128906 312.082031 -40.871094 314.472656 116.605469 314.199219 C 359.445312 313.804688 626.570312 314.957031 889.214844 313.863281 C 938.125 314.445312 981.464844 314.300781 1026.875 313.9375 C 1048.945312 316.21875 1038.761719 301.417969 1044.800781 379.414062 C 1040.894531 405.492188 1044.921875 432.042969 1042.367188 455.738281 Z M 1042.367188 455.738281 " clip-rule="nonzero"/></clipPath></defs><g clip-path="url(#6f360951a1)"><path fill="#cbcfff" d="M 0.242188 0 L 1023.484375 0 L 1023.484375 336.265625 L 0.242188 336.265625 Z M 0.242188 0 " fill-opacity="1" fill-rule="nonzero"/></g><g clip-path="url(#22fcb54f1f)"><g clip-path="url(#13cf06062e)"><path fill="#cbcfff" d="M -20.820312 313.863281 L 1044.945312 313.863281 L 1044.945312 487.976562 L -20.820312 487.976562 Z M -20.820312 313.863281 " fill-opacity="1" fill-rule="nonzero"/></g></g></svg>